<?xml version="1.0" encoding="utf-8"?>
<!-- Generator: Adobe Illustrator 25.2.3, SVG Export Plug-In . SVG Version: 6.00 Build 0)  -->
<svg version="1.1" id="Layer_1" xmlns="http://www.w3.org/2000/svg" xmlns:xlink="http://www.w3.org/1999/xlink" x="0px" y="0px"
	 width="32.97px" height="30.029px" viewBox="0 0 32.97 30.029" enable-background="new 0 0 32.97 30.029" xml:space="preserve">
<g>
	<g>
		<path fill="#00703C" d="M16.344,17.215c0.04,0,0.082-0.003,0.123-0.006c0.651-0.069,1.124-0.668,1.056-1.336l-0.546-5.43
			c-0.067-0.668-0.649-1.153-1.3-1.085c-0.65,0.069-1.123,0.667-1.057,1.336l0.547,5.429C15.229,16.749,15.744,17.215,16.344,17.215
			z M22.579,17.208c0.042,0.003,0.082,0.006,0.123,0.006c0.599,0,1.113-0.466,1.177-1.092l0.546-5.43
			c0.067-0.668-0.406-1.266-1.056-1.335c-0.651-0.068-1.233,0.417-1.3,1.085l-0.546,5.43C21.455,16.541,21.928,17.14,22.579,17.208z
			 M13.408,22.497c-2.022,0-3.667,1.689-3.667,3.766c0,2.077,1.645,3.767,3.667,3.767c2.021,0,3.666-1.69,3.666-3.767
			C17.074,24.186,15.429,22.497,13.408,22.497z M13.408,27.596c-0.716,0-1.298-0.598-1.298-1.333c0-0.735,0.582-1.333,1.298-1.333
			c0.715,0,1.297,0.598,1.297,1.333C14.705,26.998,14.123,27.596,13.408,27.596z M25.638,22.497c-2.022,0-3.667,1.689-3.667,3.766
			c0,2.077,1.645,3.767,3.667,3.767c2.021,0,3.666-1.69,3.666-3.767C29.304,24.186,27.659,22.497,25.638,22.497z M25.638,27.596
			c-0.716,0-1.298-0.598-1.298-1.333c0-0.735,0.582-1.333,1.298-1.333c0.716,0,1.298,0.598,1.298,1.333
			C26.935,26.998,26.353,27.596,25.638,27.596z M32.722,5.299c-0.223-0.297-0.57-0.472-0.937-0.472H8.177L7.185,0.91
			C7.049,0.375,6.578,0,6.039,0H1.184C0.531,0,0,0.545,0,1.217c0,0.672,0.531,1.217,1.184,1.217h3.939l0.982,3.88
			c0.005,0.025,0.011,0.049,0.018,0.073L9.78,20.828c0.135,0.536,0.607,0.911,1.146,0.911H28.12c0.539,0,1.01-0.375,1.147-0.911
			L32.931,6.35C33.024,5.985,32.946,5.597,32.722,5.299z M27.204,19.306H11.842L8.792,7.261h21.461L27.204,19.306z"/>
	</g>
</g>
</svg>
