<?xml version="1.0" encoding="utf-8"?>
<!-- Generator: Adobe Illustrator 25.2.3, SVG Export Plug-In . SVG Version: 6.00 Build 0)  -->
<svg version="1.1" id="Layer_1" xmlns="http://www.w3.org/2000/svg" xmlns:xlink="http://www.w3.org/1999/xlink" x="0px" y="0px"
	 width="26.686px" height="20.013px" viewBox="0 0 26.686 20.013" enable-background="new 0 0 26.686 20.013" xml:space="preserve">
<path fill="#00703C" d="M25.646,1.717C24.682,0.497,22.903,0,19.507,0H7.179C3.703,0,1.895,0.53,0.936,1.829
	C0,3.096,0,4.961,0,7.543v4.924c0,5.005,1.11,7.545,7.179,7.545h12.328c2.946,0,4.577-0.439,5.634-1.516
	c1.083-1.104,1.545-2.907,1.545-6.029V7.543C26.686,4.82,26.614,2.942,25.646,1.717z M16.541,10.687l-5.599,3.117
	c-0.125,0.07-0.261,0.105-0.398,0.105c-0.156,0-0.309-0.045-0.447-0.133c-0.257-0.165-0.414-0.465-0.414-0.785V6.774
	c0-0.32,0.157-0.617,0.414-0.783c0.257-0.167,0.576-0.178,0.844-0.03l5.599,3.098c0.285,0.158,0.463,0.471,0.463,0.813
	C17.003,10.214,16.825,10.527,16.541,10.687z"/>
</svg>
