<?xml version="1.0" encoding="utf-8"?>
<!-- Generator: Adobe Illustrator 25.2.3, SVG Export Plug-In . SVG Version: 6.00 Build 0)  -->
<svg version="1.1" id="Layer_1" xmlns="http://www.w3.org/2000/svg" xmlns:xlink="http://www.w3.org/1999/xlink" x="0px" y="0px"
	 width="23.967px" height="26.705px" viewBox="0 0 23.967 26.705" enable-background="new 0 0 23.967 26.705" xml:space="preserve">
<g>
	<g>
		<path fill="#00703C" d="M11.009,7.952l7.746,7.744l2.213-2.213L13.222,5.74L11.009,7.952z M23.738,9.611l-6.64-6.639
			c-0.306-0.306-0.801-0.306-1.107,0l-1.66,1.66l7.747,7.745l1.66-1.66C24.043,10.412,24.043,9.916,23.738,9.611z M7.689,11.271
			l7.746,7.744l2.213-2.213L9.902,9.058L7.689,11.271z M10.956,0.782C10.956,0.35,10.605,0,10.173,0h-9.39C0.35,0,0,0.35,0,0.782
			v2.452h10.956V0.782z M2.56,14.187H0v2.672c0.163-0.205,0.308-0.42,0.497-0.609L2.56,14.187z M7.256,9.493H0v3.129h4.126
			C4.302,12.446,7.413,9.336,7.256,9.493z M10.956,5.794V4.799H0v3.13h8.821C8.978,7.772,11.112,5.638,10.956,5.794z M4.695,21.228
			c0,0.432,0.35,0.782,0.783,0.782c0.432,0,0.782-0.35,0.782-0.782c0-0.432-0.35-0.782-0.782-0.782
			C5.045,20.446,4.695,20.796,4.695,21.228z M1.604,17.356c-2.139,2.139-2.139,5.606,0,7.745c2.139,2.139,5.607,2.139,7.747,0
			l4.98-4.979l-7.747-7.745L1.604,17.356z M7.825,21.228c0,1.294-1.053,2.347-2.348,2.347c-1.294,0-2.348-1.053-2.348-2.347
			s1.053-2.347,2.348-2.347C6.772,18.881,7.825,19.934,7.825,21.228z"/>
	</g>
</g>
</svg>
