<?xml version="1.0" encoding="utf-8"?>
<!-- Generator: Adobe Illustrator 25.2.3, SVG Export Plug-In . SVG Version: 6.00 Build 0)  -->
<svg version="1.1" id="Layer_1" xmlns="http://www.w3.org/2000/svg" xmlns:xlink="http://www.w3.org/1999/xlink" x="0px" y="0px"
	 width="18.74px" height="18.747px" viewBox="0 0 18.74 18.747" enable-background="new 0 0 18.74 18.747" xml:space="preserve">
<path fill="#00703C" d="M18.237,8.154c0-0.001-0.001-0.001-0.001-0.001L10.59,0.506C10.264,0.18,9.831,0,9.37,0
	S8.476,0.179,8.15,0.506L0.509,8.149C0.506,8.151,0.504,8.154,0.501,8.156c-0.669,0.673-0.668,1.766,0.003,2.437
	c0.307,0.307,0.712,0.485,1.145,0.503c0.018,0.002,0.035,0.002,0.053,0.002h0.305v5.628c0,1.114,0.906,2.02,2.019,2.02h2.991
	c0.303,0,0.549-0.246,0.549-0.549v-4.412c0-0.508,0.413-0.922,0.921-0.922h1.764c0.508,0,0.921,0.413,0.921,0.922v4.412
	c0,0.303,0.246,0.549,0.549,0.549h2.991c1.114,0,2.019-0.906,2.019-2.02v-5.628h0.283c0.461,0,0.894-0.179,1.22-0.505
	C18.908,9.921,18.908,8.827,18.237,8.154z"/>
</svg>
