<?xml version="1.0" encoding="utf-8"?>
<!-- Generator: Adobe Illustrator 27.5.0, SVG Export Plug-In . SVG Version: 6.00 Build 0)  -->
<svg version="1.1" id="Layer_1" xmlns="http://www.w3.org/2000/svg" xmlns:xlink="http://www.w3.org/1999/xlink" x="0px" y="0px"
	 width="29.6px" height="29.7px" viewBox="0 0 29.6 29.7" style="enable-background:new 0 0 29.6 29.7;" xml:space="preserve">
<style type="text/css">
	.st0{fill:#FFFFFF;}
	.st1{fill:#00703C;}
	.st2{fill:url(#SVGID_1_);}
	.st3{fill-rule:evenodd;clip-rule:evenodd;fill:#FFFFFF;}
</style>
<g>
	<linearGradient id="SVGID_1_" gradientUnits="userSpaceOnUse" x1="14.5034" y1="-10.6024" x2="15.0202" y2="33.843">
		<stop  offset="0.1322" style="stop-color:#01CF2D"/>
		<stop  offset="0.794" style="stop-color:#009804"/>
	</linearGradient>
	<path class="st2" d="M14.8,0.7C7,0.7,0.6,7,0.6,14.9c0,3.1,1,5.9,2.7,8.3v4.9L7,26.8c2.2,1.5,4.9,2.3,7.8,2.3
		c7.8,0,14.2-6.4,14.2-14.2C29,7,22.6,0.7,14.8,0.7z"/>
	<g>
		<path class="st3" d="M29.2,11.4C27.6,4.7,21.8,0.1,14.8,0c-0.9,0-1.9,0.1-2.8,0.3C2.2,2.3-2.9,13.1,1.9,21.8C2,22,2,22.3,2,22.5
			c-0.7,2.3-1.3,4.6-1.9,6.9C0,29.8,0,29.8,0.3,29.7c2.4-0.6,4.8-1.3,7.2-1.8c0.2-0.1,0.4-0.1,0.5,0c3.1,1.6,6.3,2,9.7,1.4
			C25.8,27.7,31.1,19.4,29.2,11.4z M16.9,26.9c-0.7,0.1-1.4,0.2-1.7,0.1c-2.6,0-4.7-0.6-6.7-1.7c-0.3-0.2-0.5-0.2-0.8-0.1
			c-1.3,0.3-2.6,0.7-4,1c-0.3,0.1-0.3,0-0.2-0.2c0.4-1.2,0.7-2.5,1.1-3.7c0.1-0.3,0.1-0.6-0.2-0.9C1.8,17,1.9,11.6,4.9,7.6
			C8,3.4,12.3,1.7,17.4,2.8c5,1.1,8.2,4.3,9.4,9.3C28.4,18.9,23.8,25.7,16.9,26.9z"/>
		<path class="st3" d="M18.7,21.8c-0.5,0-1-0.1-1.5-0.2c-3.4-1-5.9-3.1-8-5.9c-0.8-1-1.5-2.2-1.7-3.5c-0.3-1.5,0.2-2.9,1.3-3.9
			c0.4-0.4,1.5-0.5,2-0.3c0.1,0.1,0.2,0.3,0.3,0.4c0.4,1,0.9,2,1.3,3c0.1,0.2,0.1,0.4-0.1,0.6c-0.2,0.5-0.6,0.8-0.9,1.2
			c-0.3,0.2-0.3,0.5-0.1,0.8c1.2,2,2.8,3.5,5,4.3c0.3,0.1,0.6,0.1,0.8-0.2c0.4-0.4,0.8-0.9,1.1-1.4c0.2-0.3,0.5-0.3,0.8-0.2
			c0.7,0.3,1.4,0.7,2.1,1c0.2,0.1,0.3,0.2,0.5,0.2c0.7,0.4,0.7,0.4,0.6,1.2c-0.1,1.5-1.3,2.3-2.6,2.7C19.3,21.9,19,21.9,18.7,21.8z"
			/>
	</g>
</g>
</svg>
