<?xml version="1.0" standalone="no"?>
<!DOCTYPE svg PUBLIC "-//W3C//DTD SVG 1.1//EN" "http://www.w3.org/Graphics/SVG/1.1/DTD/svg11.dtd" >
<svg xmlns="http://www.w3.org/2000/svg" xmlns:xlink="http://www.w3.org/1999/xlink" version="1.1">
<metadata></metadata>
<defs>
<font id="as_seen_on_tvregular" horiz-adv-x="1343" >
<font-face units-per-em="2048" ascent="1638" descent="-410" />
<missing-glyph horiz-adv-x="1024" />
<glyph horiz-adv-x="0" />
<glyph unicode="&#xd;" horiz-adv-x="1024" />
<glyph unicode=" "  horiz-adv-x="1024" />
<glyph unicode="&#x09;" horiz-adv-x="1024" />
<glyph unicode="&#xa0;" horiz-adv-x="1024" />
<glyph unicode="!" horiz-adv-x="505" d="M131 133q0 -55 39 -94t94 -39t95 39t40 94t-40 95t-95 40t-94 -40t-39 -95zM131 1819l41 -1348h180l41 1348h-262z" />
<glyph unicode="&#x22;" horiz-adv-x="929" d="M129 1393h113l71 200v226h-184v-426zM625 1393h112l72 200v226h-184v-426z" />
<glyph unicode="#" horiz-adv-x="1437" d="M117 0l170 563h-170v133h211l133 437h-242v133h283l168 553h139l-168 -553h424l168 553h139l-168 -553h133v-133h-174l-133 -437h205v-133h-246l-170 -563h-139l170 563h-424l-170 -563h-139zM467 696h424l133 437h-424z" />
<glyph unicode="$" horiz-adv-x="1351" d="M113 461v129h262v-244q0 -68 61 -80q10 -2 115 -2h39v570h-39q-209 0 -293 40q-145 70 -145 287v197q0 184 106 262q90 66 283 66h88v120h180v-120h59q209 0 293 -41q145 -70 146 -287v-127h-262v239q0 68 -60 82q-8 2 -117 2h-59v-589h59q209 0 293 -41 q145 -70 146 -287v-178q0 -217 -146 -287q-84 -41 -293 -41h-59v-141h-180v141h-39q-207 0 -293 43q-145 72 -145 287zM375 1047q0 -68 61 -80q10 -2 115 -2h39v589h-64q-88 0 -106 -6q-45 -14 -45 -82v-419zM770 264h59q119 0 144 10q33 14 33 70v406q0 68 -60 81 q-8 3 -117 3h-59v-570z" />
<glyph unicode="%" horiz-adv-x="1302" d="M111 1552q0 111 74.5 187t185.5 76q109 0 185.5 -77t76.5 -186t-77 -185.5t-185 -76.5q-111 0 -185.5 75.5t-74.5 186.5zM205 0l880 1819h140l-881 -1819h-139zM215 1552q0 -66 45 -109.5t111 -43.5t109.5 44t43.5 109q0 66 -44 111t-109 45q-66 0 -111 -45t-45 -111z M711 262q0 109 76.5 185.5t185.5 76.5t185.5 -76.5t76.5 -185.5t-77 -185.5t-185 -76.5q-109 0 -185.5 76.5t-76.5 185.5zM817 262q0 -66 45 -109.5t111 -43.5t109.5 44t43.5 109q0 66 -44 111t-109 45q-66 0 -111 -45t-45 -111z" />
<glyph unicode="&#x26;" horiz-adv-x="1396" d="M147 328v1163q0 184 107 262q90 66 283 66h327q209 0 293 -41q145 -70 146 -287v-55h-263v168q0 68 -59 82q-8 2 -117 2h-303q-88 0 -106 -7q-45 -14 -45 -82v-1380q0 -63 39 -80q20 -8 98 -8h317q119 0 144 10q33 14 32 72v416h-413v133l678 205v-639q0 -137 -58 -215 l70 -148h-146l-45 64q-88 -29 -262 -29h-317q-184 0 -271 49q-129 74 -129 279z" />
<glyph unicode="'" horiz-adv-x="434" d="M129 1393h113l71 200v226h-184v-426z" />
<glyph unicode="(" horiz-adv-x="575" d="M100 205q0 -217 121 -285q74 -41 268 -41v129q-117 0 -141 10q-35 14 -35 72v1636q0 68 60 82q8 2 116 2v132q-195 0 -268 -41q-121 -68 -121 -287v-1409z" />
<glyph unicode=")" horiz-adv-x="606" d="M100 8q119 0 144 10q33 14 32 72v1636q0 68 -59 82q-8 2 -117 2v132q195 0 269 -41q121 -68 120 -287v-1409q0 -217 -120 -285q-74 -41 -269 -41v129z" />
<glyph unicode="*" horiz-adv-x="1167" d="M141 1126l285 -86l-207 -217l205 -147l213 248l164 -248l205 147l-193 264l270 39l-77 242l-293 -63l26 272h-254l-12 -301l-254 92z" />
<glyph unicode="+" horiz-adv-x="1198" d="M104 854h459v-459h133v459h459v133h-459v459h-133v-459h-459v-133z" />
<glyph unicode="," horiz-adv-x="458" d="M82 133q0 -55 39 -94t94 -39h12l-30 -92q-6 -20 5 -37.5t34 -17.5q29 0 55 69q16 49 31 96l22 66q6 18 6 27v22q0 55 -40 95t-95 40t-94 -40t-39 -95z" />
<glyph unicode="-" horiz-adv-x="1126" d="M113 831h893v134h-893v-134z" />
<glyph unicode="." horiz-adv-x="495" d="M119 133q0 -55 39 -94t94 -39t95 39t40 94t-40 95t-95 40t-94 -40t-39 -95z" />
<glyph unicode="/" horiz-adv-x="847" d="M92 0h139l553 1819h-139z" />
<glyph unicode="0" horiz-adv-x="1378" d="M113 328v1163q0 184 106 262q90 66 283 66h327q209 0 293 -41q145 -70 146 -287v-1163q0 -217 -146 -287q-84 -41 -293 -41h-317q-184 0 -270 49q-129 74 -129 279zM375 219q0 -63 39 -80q20 -8 98 -8h317q119 0 144 10q33 14 33 72v1391q0 68 -60 82q-8 2 -117 2h-303 q-88 0 -106 -7q-45 -14 -45 -82v-1380z" />
<glyph unicode="1" horiz-adv-x="600" d="M61 1583h156v-1583h262v1819h-254z" />
<glyph unicode="2" horiz-adv-x="1429" d="M145 0v637q0 217 146 287q84 41 293 41h278q119 0 144 10q33 14 32 72v552q0 68 -45 82q-18 6 -106 7h-303q-117 0 -142 -11q-35 -14 -34 -73v-373h-263v260q0 217 146 287q84 41 293 41h327q193 0 283 -66q106 -78 106 -262v-330q0 -217 -145 -287q-84 -41 -293 -40 h-278q-117 0 -142 -11q-35 -14 -34 -73v-617h892v-133h-1155z" />
<glyph unicode="3" horiz-adv-x="1376" d="M113 328v262h260l2 -371q0 -63 39 -80q20 -8 98 -8h317q119 0 144 10q33 14 33 72v535q0 68 -60 81q-8 2 -117 2h-151v134h151q119 0 144 10q33 14 33 72v557q0 68 -60 82q-8 2 -117 2h-303q-88 0 -106 -7q-45 -14 -45 -82v-368h-262v260q0 184 106 262q90 66 283 66h327 q209 0 293 -41q145 -70 146 -287v-330q0 -186 -107 -264q106 -78 107 -262v-307q0 -217 -146 -287q-84 -41 -293 -41h-317q-184 0 -270 49q-129 74 -129 279z" />
<glyph unicode="4" horiz-adv-x="1466" d="M92 545h914v-545h262v545h104v133h-104v1141h-420v6zM524 678l482 919v-919h-482z" />
<glyph unicode="5" horiz-adv-x="1359" d="M113 330v260h262v-375q0 -68 61 -80q2 -2 115 -2l278 -2q98 0 117 2q59 14 60 80v537q0 68 -60 81q-8 2 -117 3h-716v985h1155v-131h-893v-723h454q209 0 293 -41q145 -70 146 -287v-309q0 -217 -146 -287q-84 -41 -293 -41h-278q-207 0 -293 43q-145 72 -145 287z" />
<glyph unicode="6" horiz-adv-x="1353" d="M113 328v1163q0 184 106 262q90 66 283 66h327q209 0 293 -41q145 -70 146 -287v-260h-262v373q0 68 -60 82q-8 2 -117 2h-303q-88 0 -106 -7q-45 -14 -45 -82v-634h454q209 0 293 -41q145 -70 146 -287v-309q0 -217 -146 -287q-84 -41 -293 -41h-317q-184 0 -270 49 q-129 74 -129 279zM375 219q0 -63 39 -80q20 -8 98 -8h317q119 0 144 10q33 14 33 72v442q0 135 -20.5 155.5t-156.5 20.5h-454v-612z" />
<glyph unicode="7" horiz-adv-x="1269" d="M43 1688h807l-561 -1688h303l610 1819h-1159v-131z" />
<glyph unicode="8" horiz-adv-x="1384" d="M121 328v307q0 184 106 262q-106 78 -106 264v330q0 184 106 262q90 66 283 66h328q209 0 292 -41q145 -70 146 -287v-330q0 -186 -107 -264q106 -78 107 -262v-307q0 -217 -146 -287q-84 -41 -292 -41h-318q-184 0 -270 49q-129 74 -129 279zM383 219q0 -63 39 -80 q20 -8 98 -8h318q119 0 143 10q33 14 33 72v535q0 68 -60 81q-8 2 -116 2h-336q-68 0 -88 -12q-31 -16 -31 -80v-520zM383 1057q0 -66 31 -82q18 -10 88 -10h336q119 0 143 10q33 14 33 72v557q0 68 -60 82q-8 2 -116 2h-303q-88 0 -107 -7q-45 -14 -45 -82v-542z" />
<glyph unicode="9" horiz-adv-x="1380" d="M113 328v260h262v-375q0 -68 61 -80q10 -2 115 -2h303q88 0 107 6q45 14 45 80v637h-455q-209 0 -293 41q-145 70 -145 287v309q0 217 145 287q84 41 293 41h317q184 0 271 -50q129 -74 129 -278v-1163q0 -184 -107 -262q-90 -66 -282 -66h-328q-209 0 -293 41 q-145 70 -145 287zM375 1163q0 -131 22.5 -153.5t153.5 -22.5h455v610q0 66 -37 82q-18 8 -101 9h-317q-117 0 -141 -11q-35 -14 -35 -73v-441z" />
<glyph unicode=":" horiz-adv-x="475" d="M119 440q0 -55 39 -94t94 -39t95 39t40 94t-40 95t-95 40t-94 -40t-39 -95zM119 1229q0 -55 39 -94t94 -39t95 39t40 94t-40 95t-95 40t-94 -40t-39 -95z" />
<glyph unicode=";" horiz-adv-x="475" d="M119 440q0 -55 39 -94t94 -39h12l-31 -92q-6 -20 5.5 -37.5t33.5 -17.5q29 0 56 69q16 49 30 97l23 65q6 18 6 27v22q0 55 -40 95t-95 40t-94 -40t-39 -95zM119 1229q0 -55 39 -94t94 -39t95 39t40 94t-40 95t-95 40t-94 -40t-39 -95z" />
<glyph unicode="&#x3c;" horiz-adv-x="692" d="M76 877l428 481l98 -86l-354 -395l354 -396l-98 -86z" />
<glyph unicode="=" horiz-adv-x="1230" d="M113 563h995v133h-995v-133zM113 1051h995v133h-995v-133z" />
<glyph unicode="&#x3e;" horiz-adv-x="872" d="M158 481l98 -86l428 482l-428 481l-98 -86l354 -395z" />
<glyph unicode="?" horiz-adv-x="1370" d="M104 1231v260q0 217 146 287q84 41 293 41h327q193 0 283 -66q106 -78 107 -262v-330q0 -217 -146 -287q-84 -41 -293 -40q-70 0 -90 -13q-31 -18 -31 -80v-342h-262v238q0 184 105 260q88 68 278 68q119 0 144 10q33 14 32 72v552q0 68 -45 82q-18 6 -106 7h-303 q-117 0 -142 -11q-35 -14 -34 -73v-373h-263zM436 133q0 55 39 95t94 40t95.5 -40t40.5 -95t-40 -94t-96 -39q-55 0 -94 39t-39 94z" />
<glyph unicode="@" horiz-adv-x="528" />
<glyph unicode="A" horiz-adv-x="1337" d="M96 0h271l59 236h528l62 -236h270l-459 1819h-272zM459 369l231 911l232 -911h-463z" />
<glyph unicode="B" horiz-adv-x="1376" d="M113 0v1819h716q209 0 293 -41q145 -70 146 -287v-330q0 -186 -107 -264q106 -78 107 -262v-307q0 -217 -146 -287q-84 -41 -293 -41h-716zM375 131h454q119 0 144 10q33 14 33 72v535q0 68 -60 81q-8 2 -117 2h-454v-700zM375 965h454q119 0 144 10q33 14 33 72v557 q0 68 -60 82q-8 2 -117 2h-454v-723z" />
<glyph unicode="C" horiz-adv-x="1318" d="M113 328v1163q0 184 106 262q90 66 283 66h327q209 0 293 -41q145 -70 146 -287v-260h-262v373q0 68 -60 82q-8 2 -117 2h-303q-88 0 -106 -7q-45 -14 -45 -82v-1380q0 -63 39 -80q20 -8 98 -8h317q119 0 144 10q33 14 33 72v375h262v-260q0 -217 -146 -287 q-84 -41 -293 -41h-317q-184 0 -270 49q-129 74 -129 279z" />
<glyph unicode="D" horiz-adv-x="1378" d="M113 0v1819h716q209 0 293 -41q145 -70 146 -287v-1163q0 -217 -146 -287q-84 -41 -293 -41h-716zM375 131h454q119 0 144 10q33 14 33 72v1391q0 68 -60 82q-8 2 -117 2h-454v-1557z" />
<glyph unicode="E" horiz-adv-x="1251" d="M113 0h1155v131h-893v700h631v134h-631v723h893v131h-1155v-1819z" />
<glyph unicode="F" horiz-adv-x="1234" d="M113 0h262v831h631v134h-631v723h893v131h-1155v-1819z" />
<glyph unicode="G" horiz-adv-x="1396" d="M147 328v1163q0 184 107 262q90 66 283 66h327q209 0 293 -41q145 -70 146 -287v-260h-263v373q0 68 -59 82q-8 2 -117 2h-303q-88 0 -106 -7q-45 -14 -45 -82v-1380q0 -63 39 -80q20 -8 98 -8h317q119 0 144 10q33 14 32 72v621h-413v133h678v-639q0 -217 -146 -287 q-86 -41 -295 -41h-317q-184 0 -271 49q-129 74 -129 279z" />
<glyph unicode="H" horiz-adv-x="1388" d="M113 0h262v831h631v-831h262v1819h-262v-854h-631v854h-262v-1819z" />
<glyph unicode="I" horiz-adv-x="784" d="M123 0h573v133h-155v1553h155v133h-573v-133h156v-1553h-156v-133z" />
<glyph unicode="J" horiz-adv-x="1011" d="M160 0v131h299q119 0 143 10q33 14 33 72v1597h262v-1482q0 -217 -145 -287q-84 -41 -293 -41h-299z" />
<glyph unicode="K" horiz-adv-x="1404" d="M119 0h262v688l174 207l492 -895h299l-611 1110l598 709h-342l-610 -725v725h-262v-1819z" />
<glyph unicode="L" horiz-adv-x="1081" d="M139 0h951v131h-689v1688h-262v-1819z" />
<glyph unicode="M" horiz-adv-x="1875" d="M119 0h262v1618l418 -1618h276l418 1618v-1618h262v1819h-516l-303 -1248l-301 1248h-516v-1819z" />
<glyph unicode="N" horiz-adv-x="1388" d="M113 0h262v1485l631 -1485h262v1819h-262v-1485l-631 1485h-262v-1819z" />
<glyph unicode="O" horiz-adv-x="1378" d="M113 328v1163q0 184 106 262q90 66 283 66h327q209 0 293 -41q145 -70 146 -287v-1163q0 -217 -146 -287q-84 -41 -293 -41h-317q-184 0 -270 49q-129 74 -129 279zM375 219q0 -63 39 -80q20 -8 98 -8h317q119 0 144 10q33 14 33 72v1391q0 68 -60 82q-8 2 -117 2h-303 q-88 0 -106 -7q-45 -14 -45 -82v-1380z" />
<glyph unicode="P" horiz-adv-x="1312" d="M113 0v1819h716q209 0 293 -41q145 -70 146 -287v-463q0 -217 -146 -287q-84 -41 -293 -41h-454v-700h-262zM375 831h454q119 0 144 11q33 14 33 71v691q0 68 -60 82q-8 2 -117 2h-454v-857z" />
<glyph unicode="Q" horiz-adv-x="1378" d="M113 328v1163q0 184 106 262q90 66 283 66h327q209 0 293 -41q145 -70 146 -287v-1163q0 -217 -146 -287q-84 -41 -293 -41h-45l107 -186l-115 -66l-143 252h-121q-184 0 -270 49q-129 74 -129 279zM375 219q0 -63 39 -80q20 -8 98 -8h47l-53 94l115 66l90 -160h118 q119 0 144 10q33 14 33 72v1391q0 68 -60 82q-8 2 -117 2h-303q-88 0 -106 -7q-45 -14 -45 -82v-1380z" />
<glyph unicode="R" horiz-adv-x="1361" d="M113 0v1819h716q209 0 293 -41q145 -70 146 -287v-463q0 -217 -146 -287q-84 -41 -293 -41h-63l500 -700h-322l-504 700h-65v-700h-262zM375 831h454q119 0 144 11q33 14 33 71v691q0 68 -60 82q-8 2 -117 2h-454v-857z" />
<glyph unicode="S" horiz-adv-x="1353" d="M113 330v260h262v-375q0 -68 61 -80q10 -2 115 -2h184v-2h94q119 0 144 10q33 14 33 72v537q0 68 -60 81q-8 2 -117 3h-278q-209 0 -293 40q-145 70 -145 287v330q0 184 106 262q90 66 283 66h327q209 0 293 -41q145 -70 146 -287v-260h-262v373q0 68 -60 82q-8 2 -117 2 h-303q-88 0 -106 -7q-45 -14 -45 -82v-552q0 -68 61 -80q10 -2 115 -2h278q209 0 293 -41q145 -70 146 -287v-309q0 -217 -146 -287q-84 -41 -293 -41h-219v2h-59q-209 0 -293 41q-145 70 -145 287z" />
<glyph unicode="T" horiz-adv-x="1089" d="M92 1686h340v-1553h-2v-133h264v1686h340v133h-942v-133z" />
<glyph unicode="U" horiz-adv-x="1382" d="M113 328v1482h262v-1591q0 -63 39 -80q20 -8 98 -8h317q119 0 144 10q33 14 33 72v1597h262v-1482q0 -217 -146 -287q-84 -41 -293 -41h-317q-184 0 -270 49q-129 74 -129 279z" />
<glyph unicode="V" horiz-adv-x="1353" d="M96 1819h271l323 -1280l326 1280h270l-459 -1819h-270l-2 4l2 -4h-2z" />
<glyph unicode="W" horiz-adv-x="1867" d="M88 1819l356 -1819h273l-2 4l221 1126l223 -1130h273l-2 4l358 1815h-270l-224 -1280l-221 1280h-270l-223 -1280l-222 1280h-270z" />
<glyph unicode="X" horiz-adv-x="1503" d="M88 0h299l404 733l405 -733h299l-555 1004l451 815h-299l-301 -545l-299 545h-299l448 -815z" />
<glyph unicode="Y" horiz-adv-x="1452" d="M55 1819l537 -1139v-680h262v680l541 1139h-289l-381 -803l-381 803h-289z" />
<glyph unicode="Z" horiz-adv-x="1269" d="M68 0h1159v131h-811l811 1688h-1159v-131h806z" />
<glyph unicode="[" horiz-adv-x="591" d="M106 -123h390v131h-177v1802h177v132h-390v-2065z" />
<glyph unicode="\" horiz-adv-x="847" d="M76 1819l553 -1819h139l-553 1819h-139z" />
<glyph unicode="]" horiz-adv-x="583" d="M78 8h176v1802h-176v132h389v-2065h-389v131z" />
<glyph unicode="^" horiz-adv-x="643" d="M80 1069l201 248h71l203 -248h-119l-121 148l-116 -148h-119z" />
<glyph unicode="_" horiz-adv-x="1212" d="M92 0h1000v131h-1000v-131z" />
<glyph unicode="`" horiz-adv-x="573" d="M88 1475h242l135 -281h-146z" />
<glyph unicode="a" d="M117 328v78q0 217 145 286q84 41 293 41h414v414q0 68 -60 82q-8 2 -116 2h-238q-117 0 -141 -10q-35 -14 -35 -74v-191h-262v78q0 217 145 287q84 41 293 41h238q209 0 292 -41q145 -70 146 -287v-1034h-676q-209 0 -293 41q-145 70 -145 287zM379 213q0 -68 61 -80 q10 -2 115 -2h414v471h-414q-117 0 -141 -10q-35 -14 -35 -74v-305z" />
<glyph unicode="b" horiz-adv-x="1288" d="M92 0v1819h262v-457h414q209 0 293 -41q145 -70 145 -287v-706q0 -217 -145 -287q-84 -41 -293 -41h-676zM354 131h414q119 0 143 10q33 14 33 72v934q0 68 -59 82q-8 2 -117 2h-414v-1100z" />
<glyph unicode="c" horiz-adv-x="1265" d="M113 328v706q0 217 145 287q84 41 293 41h237q209 0 293 -41q145 -70 146 -287v-78h-262v191q0 68 -60 82q-8 2 -117 2h-237q-117 0 -141 -10q-35 -14 -35 -74v-934q0 -68 61 -80q10 -2 115 -2h237q119 0 144 10q33 14 33 72v115h262q0 -217 -146 -287q-84 -41 -293 -41 h-237q-209 0 -293 41q-145 70 -145 287z" />
<glyph unicode="d" horiz-adv-x="1327" d="M92 328q0 -217 146 -287q83 -41 292 -41h676v1819h-262v-457h-414q-209 0 -292 -41q-145 -70 -146 -287v-706zM354 213v934q0 68 60 82q8 2 116 2h414v-1100h-414q-117 0 -141 10q-35 14 -35 72z" />
<glyph unicode="e" horiz-adv-x="1312" d="M117 328v706q0 217 145 287q84 41 293 41h238q209 0 292 -41q145 -70 146 -287v-432h-852v-389q0 -68 61 -80q10 -2 115 -2h238q119 0 143 10q33 14 33 72v115h262q0 -217 -146 -287q-84 -41 -292 -41h-238q-209 0 -293 41q-145 70 -145 287zM379 733h590v414 q0 68 -60 82q-8 2 -116 2h-238q-117 0 -141 -10q-35 -14 -35 -74v-414z" />
<glyph unicode="f" horiz-adv-x="794" d="M94 1231v131h176v123q0 217 146 287q82 40 283 40h10v-131q-117 0 -142 -10q-35 -14 -35 -74v-235h177v-131h-177v-1231h-262v1231h-176z" />
<glyph unicode="g" horiz-adv-x="1351" d="M123 -127h262v-113q0 -68 59 -82q8 -2 117 -2h238q119 0 143 11q33 14 33 73v240h-414q-209 0 -293 41q-145 70 -145 287v706q0 217 145 287q84 41 293 41h676v-1489q0 -217 -145 -287q-84 -41 -293 -41h-238q-209 0 -293 41q-145 70 -145 287zM385 213q0 -68 61 -80 q10 -2 115 -2h414v1100h-414q-117 0 -141 -10q-35 -14 -35 -74v-934z" />
<glyph unicode="h" horiz-adv-x="1290" d="M92 0v1819h262v-457h414q209 0 293 -41q145 -70 145 -287v-1034h-262v1147q0 68 -59 82q-8 2 -117 2h-414v-1231h-262z" />
<glyph unicode="i" horiz-adv-x="493" d="M119 0h262v1358h-262v-1358zM119 1591h262v228h-262v-228z" />
<glyph unicode="j" horiz-adv-x="653" d="M102 -322q119 0 144 11q33 14 33 73v1596h262v-1483q0 -217 -146 -287q-84 -41 -293 -41v131zM279 1591v228h262v-228h-262z" />
<glyph unicode="k" horiz-adv-x="1249" d="M92 0h262v549l189 180l366 -729h295l-463 918l471 444h-190l-668 -633v1090h-262v-1819z" />
<glyph unicode="l" horiz-adv-x="514" d="M131 0h262v1819h-262v-1819z" />
<glyph unicode="m" horiz-adv-x="2203" d="M125 0v1362h1528q209 0 293 -41q145 -70 145 -287v-1034h-262v1147q0 68 -60 82q-8 2 -116 2h-414v-1231h-262v1231h-590v-1231h-262z" />
<glyph unicode="n" horiz-adv-x="1351" d="M125 0v1362h676q209 0 293 -41q145 -70 145 -287v-1034h-262v1147q0 68 -59 82q-8 2 -117 2h-414v-1231h-262z" />
<glyph unicode="o" d="M119 287v747q0 217 145 287q84 41 293 41h238q209 0 292 -41q145 -70 146 -287v-706q0 -217 -146 -287q-84 -41 -292 -41h-238q-197 0 -281 37q-157 70 -157 250zM381 213q0 -68 61 -80q10 -2 115 -2h238q119 0 143 10q33 14 33 72v934q0 68 -60 82q-8 2 -116 2h-238 q-117 0 -141 -10q-35 -14 -35 -74v-934z" />
<glyph unicode="p" horiz-adv-x="1300" d="M92 -455h262v455h414q209 0 293 41q145 70 145 287v706q0 217 -145 287q-84 41 -293 41h-676v-1817zM354 131v1100h414q119 0 143 -10q33 -14 33 -74v-934q0 -68 -61 -80q-10 -2 -115 -2h-414z" />
<glyph unicode="q" horiz-adv-x="1331" d="M92 328v706q0 217 146 287q83 41 292 41h676v-1817h-262v455h-414q-209 0 -292 41q-145 70 -146 287zM354 213q0 -68 62 -80q10 -2 114 -2h414v1100h-414q-117 0 -141 -10q-35 -14 -35 -74v-934z" />
<glyph unicode="r" horiz-adv-x="1056" d="M123 0v1362h471q209 0 293 -41q145 -70 145 -287v-80h-262v193q0 68 -59 82q-8 2 -117 2h-209v-1231h-262z" />
<glyph unicode="s" horiz-adv-x="1308" d="M111 328h262v-115q0 -68 61 -80q10 -2 115 -2h237q119 0 144 10q33 14 33 72v305q0 68 -60 82q-8 2 -117 2h-237q-209 0 -293 41q-145 70 -145 287v104q0 217 145 287q84 41 293 41h237q209 0 293 -41q145 -70 146 -287v-78h-262v191q0 68 -60 82q-8 2 -117 2h-237 q-117 0 -141 -10q-35 -14 -35 -74v-332q0 -68 61 -80q10 -2 115 -2h237q209 0 293 -41q145 -70 146 -286v-78q0 -217 -146 -287q-84 -41 -293 -41h-237q-209 0 -293 41q-145 70 -145 287z" />
<glyph unicode="t" horiz-adv-x="792" d="M92 1231h176v-897q0 -217 146 -287q84 -41 293 -41v131q-117 0 -142 10q-35 14 -35 72v1012h177v131h-177v457h-262v-457h-176v-131z" />
<glyph unicode="u" horiz-adv-x="1357" d="M123 287v1075h262v-1149q0 -68 61 -80q10 -2 115 -2h238q119 0 143 10q33 14 33 72v1149h262v-1034q0 -217 -145 -287q-84 -41 -293 -41h-238q-197 0 -280 37q-158 70 -158 250z" />
<glyph unicode="v" horiz-adv-x="1490" d="M53 1362l545 -1362h283l544 1362h-278l-408 -1012l-407 1012h-279z" />
<glyph unicode="w" horiz-adv-x="2131" d="M84 1362l422 -1362h282l283 911l283 -911h282l422 1362h-278l-285 -1012l-285 1012h-278l-285 -1012l-285 1012h-278z" />
<glyph unicode="x" horiz-adv-x="1417" d="M82 0h283l329 457l330 -457h283l-490 682l490 680h-283l-330 -457l-329 457h-283l491 -682z" />
<glyph unicode="y" horiz-adv-x="1486" d="M49 1362l545 -1362h2l-256 -633h283l798 1995h-278l-408 -1012l-407 1012h-279z" />
<glyph unicode="z" horiz-adv-x="1372" d="M74 1231v131h1247l-836 -1231h844v-131h-1251l837 1231h-841z" />
<glyph unicode="{" horiz-adv-x="747" d="M61 866l191 221v527q0 219 121 287q74 41 268 41v-132q-117 0 -141 -10q-35 -14 -35 -74v-587l-232 -273l232 -272v-504q0 -68 61 -80q10 -2 115 -2v-129q-195 0 -268 41q-121 68 -121 285v438z" />
<glyph unicode="|" horiz-adv-x="432" d="M131 0h180v1819h-180v-1819z" />
<glyph unicode="}" horiz-adv-x="763" d="M96 8v-129q195 0 269 41q121 68 120 285v438l191 223l-191 221v527q0 219 -120 287q-74 41 -269 41v-132q119 0 144 -10q33 -14 32 -74v-587l232 -273l-232 -272v-504q0 -68 -61 -80q-10 -2 -115 -2z" />
<glyph unicode="~" horiz-adv-x="905" d="M96 557v205q76 121 195 121q78 0 221 -88q78 -47 121 -47q92 0 180 137v-211q-84 -115 -195 -115q-72 0 -200 82q-80 51 -137 51q-85 0 -185 -135z" />
<glyph unicode="&#xa8;" horiz-adv-x="808" d="M57 1341q0 -55 39 -94t94 -39t95.5 39t40.5 94t-40 95.5t-96 40.5q-55 0 -94 -40.5t-39 -95.5zM467 1341q0 -55 39 -94t94 -39t95 39t40 94t-40 95.5t-95 40.5t-94 -40.5t-39 -95.5z" />
<glyph unicode="&#xa9;" horiz-adv-x="1593" d="M90 707q0 299 204 503.5t503 204.5t503.5 -204.5t204.5 -503.5t-204.5 -503t-503.5 -204t-503 204t-204 503zM258 707q0 -229 154.5 -385t384.5 -156q227 0 384.5 156.5t157.5 384.5q0 227 -157.5 384.5t-384.5 157.5t-383 -157.5t-156 -384.5zM469 479v424q0 129 86 172 q49 25 176 25h143q127 0 177 -25q86 -43 86 -172v-47h-158v115q0 41 -35 49q-6 2 -70 2h-143q-72 0 -84 -6q-20 -10 -20 -45v-561q0 -39 37 -48q6 -2 67 -2h143q61 0 70 2q35 8 35 48v69h158q0 -129 -86 -172q-49 -25 -177 -24h-143q-127 0 -176 24q-86 43 -86 172z" />
<glyph unicode="&#xab;" horiz-adv-x="1095" d="M49 877l428 -482l98 86l-354 396l354 395l-98 86zM479 877l428 -482l99 86l-355 396l355 395l-99 86z" />
<glyph unicode="&#xad;" horiz-adv-x="1126" d="M113 831h893v134h-893v-134z" />
<glyph unicode="&#xb4;" horiz-adv-x="573" d="M88 1194h145l232 281h-242z" />
<glyph unicode="&#xb7;" horiz-adv-x="495" d="M119 952q0 -55 39 -94t94 -39t95 39t40 94t-40 95t-95 40t-94 -40t-39 -95z" />
<glyph unicode="&#xbb;" horiz-adv-x="24" d="M-1006 481l355 396l-355 395l99 86l428 -481l-428 -482zM-575 481l354 396l-354 395l98 86l428 -481l-428 -482z" />
<glyph unicode="&#xc0;" horiz-adv-x="1337" d="M96 0h271l59 236h528l62 -236h270l-459 1819h-272zM395 2171h242l135 -281h-146zM459 369l231 911l232 -911h-463z" />
<glyph unicode="&#xc1;" horiz-adv-x="1337" d="M96 0h271l59 236h528l62 -236h270l-459 1819h-272zM459 369l231 911l232 -911h-463zM641 1890h145l232 281h-242z" />
<glyph unicode="&#xc2;" horiz-adv-x="1337" d="M96 0h271l59 236h528l62 -236h270l-459 1819h-272zM449 1888l201 248h71l203 -248h-119l-121 148l-116 -148h-119zM459 369l231 911l232 -911h-463z" />
<glyph unicode="&#xc3;" horiz-adv-x="1337" d="M96 0h271l59 236h528l62 -236h270l-459 1819h-272zM321 1888v205q76 121 195 121q78 0 221 -88q78 -47 121 -47q92 0 180 137v-211q-84 -115 -195 -115q-72 0 -200 82q-80 51 -137 51q-85 0 -185 -135zM459 369l231 911l232 -911h-463z" />
<glyph unicode="&#xc4;" horiz-adv-x="1337" d="M96 0h271l59 236h528l62 -236h270l-459 1819h-272zM344 2017q0 -55 39 -94t94 -39t95.5 39t40.5 94t-40 95.5t-96 40.5q-55 0 -94 -40.5t-39 -95.5zM459 369l231 911l232 -911h-463zM754 2017q0 -55 39 -94t94 -39t95 39t40 94t-40 95.5t-95 40.5t-94 -40.5t-39 -95.5z " />
<glyph unicode="&#xc5;" horiz-adv-x="1337" d="M96 0h271l59 236h528l62 -236h270l-459 1819h-272zM418 2167q0 111 74.5 186.5t185.5 75.5q109 0 185.5 -77t76.5 -185q0 -109 -77 -185.5t-185 -76.5q-111 0 -185.5 75.5t-74.5 186.5zM459 369l231 911l232 -911h-463zM522 2167q0 -66 45 -110t111 -44t109.5 44 t43.5 110t-44 110.5t-109 44.5q-66 0 -111 -44.5t-45 -110.5z" />
<glyph unicode="&#xc6;" horiz-adv-x="1716" d="M96 0h271l59 236h379v-236h885v131h-627v700h364v134h-364v723h627v131h-1135zM459 369l346 1319v-1319h-346z" />
<glyph unicode="&#xc7;" horiz-adv-x="1318" d="M113 328v1163q0 184 106 262q90 66 283 66h327q209 0 293 -41q145 -70 146 -287v-260h-262v373q0 68 -60 82q-8 2 -117 2h-303q-88 0 -106 -7q-45 -14 -45 -82v-1380q0 -63 39 -80q20 -8 98 -8h317q119 0 144 10q33 14 33 72v375h262v-260q0 -217 -146 -287 q-84 -41 -293 -41h-317q-184 0 -270 49q-129 74 -129 279z" />
<glyph unicode="&#xc8;" horiz-adv-x="1251" d="M113 0h1155v131h-893v700h631v134h-631v723h893v131h-1155v-1819zM395 2171h242l135 -281h-146z" />
<glyph unicode="&#xc9;" horiz-adv-x="1251" d="M113 0h1155v131h-893v700h631v134h-631v723h893v131h-1155v-1819zM641 1890h145l232 281h-242z" />
<glyph unicode="&#xca;" horiz-adv-x="1251" d="M113 0h1155v131h-893v700h631v134h-631v723h893v131h-1155v-1819zM449 1888l201 248h71l203 -248h-119l-121 148l-116 -148h-119z" />
<glyph unicode="&#xcb;" horiz-adv-x="1251" d="M113 0h1155v131h-893v700h631v134h-631v723h893v131h-1155v-1819zM344 2017q0 -55 39 -94t94 -39t95.5 39t40.5 94t-40 95.5t-96 40.5q-55 0 -94 -40.5t-39 -95.5zM754 2017q0 -55 39 -94t94 -39t95 39t40 94t-40 95.5t-95 40.5t-94 -40.5t-39 -95.5z" />
<glyph unicode="&#xcc;" horiz-adv-x="784" d="M123 0h573v133h-155v1553h155v133h-573v-133h156v-1553h-156v-133zM129 2171h242l135 -281h-146z" />
<glyph unicode="&#xcd;" horiz-adv-x="784" d="M123 0h573v133h-155v1553h155v133h-573v-133h156v-1553h-156v-133zM313 1890h145l232 281h-242z" />
<glyph unicode="&#xce;" horiz-adv-x="784" d="M123 0h573v133h-155v1553h155v133h-573v-133h156v-1553h-156v-133zM182 1888l201 248h71l203 -248h-119l-121 148l-116 -148h-119z" />
<glyph unicode="&#xcf;" horiz-adv-x="784" d="M57 2017q0 -55 39 -94t94 -39t95.5 39t40.5 94t-40 95.5t-96 40.5q-55 0 -94 -40.5t-39 -95.5zM123 0h573v133h-155v1553h155v133h-573v-133h156v-1553h-156v-133zM467 2017q0 -55 39 -94t94 -39t95 39t40 94t-40 95.5t-95 40.5t-94 -40.5t-39 -95.5z" />
<glyph unicode="&#xd0;" horiz-adv-x="1378" d="M113 0v1819h716q209 0 293 -41q145 -70 146 -287v-1163q0 -217 -146 -287q-84 -41 -293 -41h-716zM375 131h454q119 0 144 10q33 14 33 72v1391q0 68 -60 82q-8 2 -117 2h-454v-1557z" />
<glyph unicode="&#xd1;" horiz-adv-x="1388" d="M113 0h262v1485l631 -1485h262v1819h-262v-1485l-631 1485h-262v-1819zM321 1888v205q76 121 195 121q78 0 221 -88q78 -47 121 -47q92 0 180 137v-211q-84 -115 -195 -115q-72 0 -200 82q-80 51 -137 51q-85 0 -185 -135z" />
<glyph unicode="&#xd2;" horiz-adv-x="1378" d="M113 328v1163q0 184 106 262q90 66 283 66h327q209 0 293 -41q145 -70 146 -287v-1163q0 -217 -146 -287q-84 -41 -293 -41h-317q-184 0 -270 49q-129 74 -129 279zM375 219q0 -63 39 -80q20 -8 98 -8h317q119 0 144 10q33 14 33 72v1391q0 68 -60 82q-8 2 -117 2h-303 q-88 0 -106 -7q-45 -14 -45 -82v-1380zM395 2171h242l135 -281h-146z" />
<glyph unicode="&#xd3;" horiz-adv-x="1378" d="M113 328v1163q0 184 106 262q90 66 283 66h327q209 0 293 -41q145 -70 146 -287v-1163q0 -217 -146 -287q-84 -41 -293 -41h-317q-184 0 -270 49q-129 74 -129 279zM375 219q0 -63 39 -80q20 -8 98 -8h317q119 0 144 10q33 14 33 72v1391q0 68 -60 82q-8 2 -117 2h-303 q-88 0 -106 -7q-45 -14 -45 -82v-1380zM641 1890h145l232 281h-242z" />
<glyph unicode="&#xd4;" horiz-adv-x="1378" d="M113 328v1163q0 184 106 262q90 66 283 66h327q209 0 293 -41q145 -70 146 -287v-1163q0 -217 -146 -287q-84 -41 -293 -41h-317q-184 0 -270 49q-129 74 -129 279zM375 219q0 -63 39 -80q20 -8 98 -8h317q119 0 144 10q33 14 33 72v1391q0 68 -60 82q-8 2 -117 2h-303 q-88 0 -106 -7q-45 -14 -45 -82v-1380zM449 1888l201 248h71l203 -248h-119l-121 148l-116 -148h-119z" />
<glyph unicode="&#xd5;" horiz-adv-x="1378" d="M113 328v1163q0 184 106 262q90 66 283 66h327q209 0 293 -41q145 -70 146 -287v-1163q0 -217 -146 -287q-84 -41 -293 -41h-317q-184 0 -270 49q-129 74 -129 279zM321 1888v205q76 121 195 121q78 0 221 -88q78 -47 121 -47q92 0 180 137v-211q-84 -115 -195 -115 q-72 0 -200 82q-80 51 -137 51q-85 0 -185 -135zM375 219q0 -63 39 -80q20 -8 98 -8h317q119 0 144 10q33 14 33 72v1391q0 68 -60 82q-8 2 -117 2h-303q-88 0 -106 -7q-45 -14 -45 -82v-1380z" />
<glyph unicode="&#xd6;" horiz-adv-x="1378" d="M113 328v1163q0 184 106 262q90 66 283 66h327q209 0 293 -41q145 -70 146 -287v-1163q0 -217 -146 -287q-84 -41 -293 -41h-317q-184 0 -270 49q-129 74 -129 279zM344 2017q0 -55 39 -94t94 -39t95.5 39t40.5 94t-40 95.5t-96 40.5q-55 0 -94 -40.5t-39 -95.5zM375 219 q0 -63 39 -80q20 -8 98 -8h317q119 0 144 10q33 14 33 72v1391q0 68 -60 82q-8 2 -117 2h-303q-88 0 -106 -7q-45 -14 -45 -82v-1380zM754 2017q0 -55 39 -94t94 -39t95 39t40 94t-40 95.5t-95 40.5t-94 -40.5t-39 -95.5z" />
<glyph unicode="&#xd7;" horiz-adv-x="1484" d="M102 451l324 -164l330 375l329 -375l324 164l-489 436l489 434l-324 164l-329 -375l-330 375l-324 -164l492 -436z" />
<glyph unicode="&#xd8;" horiz-adv-x="1378" d="M92 0l70 123q-49 78 -49 205v1163q0 184 106 262q90 66 283 66h327q193 0 279 -35l20 35h140l-62 -109q61 -78 62 -219v-1163q0 -217 -146 -287q-84 -41 -293 -41h-317q-170 0 -256 41l-25 -41h-139zM375 219q0 -63 39 -80q20 -8 98 -8h317q119 0 144 10q33 14 33 72 v1145l-631 -1106v-33zM375 496l631 1108q0 68 -60 82q-8 2 -117 2h-303q-88 0 -106 -7q-45 -14 -45 -82v-1103z" />
<glyph unicode="&#xd9;" horiz-adv-x="1382" d="M113 328v1482h262v-1591q0 -63 39 -80q20 -8 98 -8h317q119 0 144 10q33 14 33 72v1597h262v-1482q0 -217 -146 -287q-84 -41 -293 -41h-317q-184 0 -270 49q-129 74 -129 279zM395 2171h242l135 -281h-146z" />
<glyph unicode="&#xda;" horiz-adv-x="1382" d="M113 328v1482h262v-1591q0 -63 39 -80q20 -8 98 -8h317q119 0 144 10q33 14 33 72v1597h262v-1482q0 -217 -146 -287q-84 -41 -293 -41h-317q-184 0 -270 49q-129 74 -129 279zM641 1890h145l232 281h-242z" />
<glyph unicode="&#xdb;" horiz-adv-x="1382" d="M113 328v1482h262v-1591q0 -63 39 -80q20 -8 98 -8h317q119 0 144 10q33 14 33 72v1597h262v-1482q0 -217 -146 -287q-84 -41 -293 -41h-317q-184 0 -270 49q-129 74 -129 279zM449 1888l201 248h71l203 -248h-119l-121 148l-116 -148h-119z" />
<glyph unicode="&#xdc;" horiz-adv-x="1382" d="M113 328v1482h262v-1591q0 -63 39 -80q20 -8 98 -8h317q119 0 144 10q33 14 33 72v1597h262v-1482q0 -217 -146 -287q-84 -41 -293 -41h-317q-184 0 -270 49q-129 74 -129 279zM344 2017q0 -55 39 -94t94 -39t95.5 39t40.5 94t-40 95.5t-96 40.5q-55 0 -94 -40.5 t-39 -95.5zM754 2017q0 -55 39 -94t94 -39t95 39t40 94t-40 95.5t-95 40.5t-94 -40.5t-39 -95.5z" />
<glyph unicode="&#xdd;" horiz-adv-x="1452" d="M55 1819l537 -1139v-680h262v680l541 1139h-289l-381 -803l-381 803h-289z" />
<glyph unicode="&#xdf;" horiz-adv-x="1376" d="M113 -281v1772q0 217 145 287q84 41 293 41h278q209 0 293 -41q145 -70 146 -287v-330q0 -186 -107 -264q106 -78 107 -262v-307q0 -217 -146 -287q-84 -41 -293 -41h-151v131h151q119 0 144 10q33 14 33 72v535q0 68 -60 81q-8 2 -117 2h-454v-1112h-262zM375 965h454 q119 0 144 10q33 14 33 72v557q0 68 -60 82q-8 2 -117 2h-278q-117 0 -141 -11q-35 -14 -35 -73v-639z" />
<glyph unicode="&#xe0;" d="M117 328v78q0 217 145 286q84 41 293 41h414v414q0 68 -60 82q-8 2 -116 2h-238q-117 0 -141 -10q-35 -14 -35 -74v-191h-262v78q0 217 145 287q84 41 293 41h238q209 0 292 -41q145 -70 146 -287v-1034h-676q-209 0 -293 41q-145 70 -145 287zM379 213q0 -68 61 -80 q10 -2 115 -2h414v471h-414q-117 0 -141 -10q-35 -14 -35 -74v-305zM395 1762h242l135 -281h-146z" />
<glyph unicode="&#xe1;" d="M117 328v78q0 217 145 286q84 41 293 41h414v414q0 68 -60 82q-8 2 -116 2h-238q-117 0 -141 -10q-35 -14 -35 -74v-191h-262v78q0 217 145 287q84 41 293 41h238q209 0 292 -41q145 -70 146 -287v-1034h-676q-209 0 -293 41q-145 70 -145 287zM379 213q0 -68 61 -80 q10 -2 115 -2h414v471h-414q-117 0 -141 -10q-35 -14 -35 -74v-305zM641 1481h145l232 281h-242z" />
<glyph unicode="&#xe2;" d="M117 328v78q0 217 145 286q84 41 293 41h414v414q0 68 -60 82q-8 2 -116 2h-238q-117 0 -141 -10q-35 -14 -35 -74v-191h-262v78q0 217 145 287q84 41 293 41h238q209 0 292 -41q145 -70 146 -287v-1034h-676q-209 0 -293 41q-145 70 -145 287zM379 213q0 -68 61 -80 q10 -2 115 -2h414v471h-414q-117 0 -141 -10q-35 -14 -35 -74v-305zM449 1479l201 248h71l203 -248h-119l-121 148l-116 -148h-119z" />
<glyph unicode="&#xe3;" d="M117 328v78q0 217 145 286q84 41 293 41h414v414q0 68 -60 82q-8 2 -116 2h-238q-117 0 -141 -10q-35 -14 -35 -74v-191h-262v78q0 217 145 287q84 41 293 41h238q209 0 292 -41q145 -70 146 -287v-1034h-676q-209 0 -293 41q-145 70 -145 287zM321 1479v205 q76 121 195 121q78 0 221 -88q78 -47 121 -47q92 0 180 137v-211q-84 -115 -195 -115q-72 0 -200 82q-80 51 -137 51q-85 0 -185 -135zM379 213q0 -68 61 -80q10 -2 115 -2h414v471h-414q-117 0 -141 -10q-35 -14 -35 -74v-305z" />
<glyph unicode="&#xe4;" d="M117 328v78q0 217 145 286q84 41 293 41h414v414q0 68 -60 82q-8 2 -116 2h-238q-117 0 -141 -10q-35 -14 -35 -74v-191h-262v78q0 217 145 287q84 41 293 41h238q209 0 292 -41q145 -70 146 -287v-1034h-676q-209 0 -293 41q-145 70 -145 287zM344 1607q0 -55 39 -94 t94 -39t95.5 39t40.5 94t-40 95.5t-96 40.5q-55 0 -94 -40.5t-39 -95.5zM379 213q0 -68 61 -80q10 -2 115 -2h414v471h-414q-117 0 -141 -10q-35 -14 -35 -74v-305zM754 1607q0 -55 39 -94t94 -39t95 39t40 94t-40 95.5t-95 40.5t-94 -40.5t-39 -95.5z" />
<glyph unicode="&#xe5;" d="M117 328v78q0 217 145 286q84 41 293 41h414v414q0 68 -60 82q-8 2 -116 2h-238q-117 0 -141 -10q-35 -14 -35 -74v-191h-262v78q0 217 145 287q84 41 293 41h238q209 0 292 -41q145 -70 146 -287v-1034h-676q-209 0 -293 41q-145 70 -145 287zM379 213q0 -68 61 -80 q10 -2 115 -2h414v471h-414q-117 0 -141 -10q-35 -14 -35 -74v-305z" />
<glyph unicode="&#xe6;" horiz-adv-x="1957" d="M111 328v78q0 217 145 286q84 41 293 41h311v414q0 68 -59 82q-8 2 -117 2h-135q-117 0 -141 -10q-35 -14 -35 -74v-191h-262v78q0 217 145 287q84 41 293 41h135q219 0 307 -49q88 49 309 49h136q209 0 293 -41q145 -70 145 -287v-432h-750v-389q0 -68 62 -80 q10 -2 114 -2h136q119 0 143 10q33 14 33 72v115h262q0 -217 -145 -287q-84 -41 -293 -41h-136q-121 0 -178 8v-8h-573q-209 0 -293 41q-145 70 -145 287zM373 213q0 -68 61 -80q10 -2 115 -2h311v471h-311q-117 0 -141 -10q-35 -14 -35 -74v-305zM1124 733h488v414 q0 68 -60 82q-8 2 -116 2h-136q-117 0 -141 -10q-35 -14 -35 -74v-414z" />
<glyph unicode="&#xe7;" horiz-adv-x="1265" d="M113 328v706q0 217 145 287q84 41 293 41h237q209 0 293 -41q145 -70 146 -287v-78h-262v191q0 68 -60 82q-8 2 -117 2h-237q-117 0 -141 -10q-35 -14 -35 -74v-934q0 -68 61 -80q10 -2 115 -2h237q119 0 144 10q33 14 33 72v115h262q0 -217 -146 -287q-84 -41 -293 -41 h-237q-209 0 -293 41q-145 70 -145 287z" />
<glyph unicode="&#xe8;" horiz-adv-x="1312" d="M117 328v706q0 217 145 287q84 41 293 41h238q209 0 292 -41q145 -70 146 -287v-432h-852v-389q0 -68 61 -80q10 -2 115 -2h238q119 0 143 10q33 14 33 72v115h262q0 -217 -146 -287q-84 -41 -292 -41h-238q-209 0 -293 41q-145 70 -145 287zM379 733h590v414 q0 68 -60 82q-8 2 -116 2h-238q-117 0 -141 -10q-35 -14 -35 -74v-414zM395 1762h242l135 -281h-146z" />
<glyph unicode="&#xe9;" horiz-adv-x="1312" d="M117 328v706q0 217 145 287q84 41 293 41h238q209 0 292 -41q145 -70 146 -287v-432h-852v-389q0 -68 61 -80q10 -2 115 -2h238q119 0 143 10q33 14 33 72v115h262q0 -217 -146 -287q-84 -41 -292 -41h-238q-209 0 -293 41q-145 70 -145 287zM379 733h590v414 q0 68 -60 82q-8 2 -116 2h-238q-117 0 -141 -10q-35 -14 -35 -74v-414zM641 1481h145l232 281h-242z" />
<glyph unicode="&#xea;" horiz-adv-x="1312" d="M117 328v706q0 217 145 287q84 41 293 41h238q209 0 292 -41q145 -70 146 -287v-432h-852v-389q0 -68 61 -80q10 -2 115 -2h238q119 0 143 10q33 14 33 72v115h262q0 -217 -146 -287q-84 -41 -292 -41h-238q-209 0 -293 41q-145 70 -145 287zM379 733h590v414 q0 68 -60 82q-8 2 -116 2h-238q-117 0 -141 -10q-35 -14 -35 -74v-414zM449 1479l201 248h71l203 -248h-119l-121 148l-116 -148h-119z" />
<glyph unicode="&#xeb;" horiz-adv-x="1312" d="M117 328v706q0 217 145 287q84 41 293 41h238q209 0 292 -41q145 -70 146 -287v-432h-852v-389q0 -68 61 -80q10 -2 115 -2h238q119 0 143 10q33 14 33 72v115h262q0 -217 -146 -287q-84 -41 -292 -41h-238q-209 0 -293 41q-145 70 -145 287zM344 1607q0 -55 39 -94 t94 -39t95.5 39t40.5 94t-40 95.5t-96 40.5q-55 0 -94 -40.5t-39 -95.5zM379 733h590v414q0 68 -60 82q-8 2 -116 2h-238q-117 0 -141 -10q-35 -14 -35 -74v-414zM754 1607q0 -55 39 -94t94 -39t95 39t40 94t-40 95.5t-95 40.5t-94 -40.5t-39 -95.5z" />
<glyph unicode="&#xec;" horiz-adv-x="493" d="M6 1761h242l135 -280h-145zM119 0h262v1358h-262v-1358z" />
<glyph unicode="&#xed;" horiz-adv-x="493" d="M109 1481h145l231 280h-241zM119 0h262v1358h-262v-1358z" />
<glyph unicode="&#xee;" horiz-adv-x="493" d="M10 1479l201 247h72l202 -247h-118l-121 147l-117 -147h-119zM119 0h262v1358h-262v-1358z" />
<glyph unicode="&#xef;" horiz-adv-x="493" d="M-86 1608q0 -55 39 -94t94 -39t95 38.5t40 94.5q0 55 -40 95t-95 40t-94 -40t-39 -95zM119 0h262v1358h-262v-1358zM324 1608q0 -55 38.5 -94t94.5 -39q55 0 95 38.5t40 94.5q0 55 -40 95t-95 40t-94 -40t-39 -95z" />
<glyph unicode="&#xf1;" horiz-adv-x="1351" d="M125 0v1362h676q209 0 293 -41q145 -70 145 -287v-1034h-262v1147q0 68 -59 82q-8 2 -117 2h-414v-1231h-262zM321 1479v205q76 121 195 121q78 0 221 -88q78 -47 121 -47q92 0 180 137v-211q-84 -115 -195 -115q-72 0 -200 82q-80 51 -137 51q-85 0 -185 -135z" />
<glyph unicode="&#xf2;" d="M119 287v747q0 217 145 287q84 41 293 41h238q209 0 292 -41q145 -70 146 -287v-706q0 -217 -146 -287q-84 -41 -292 -41h-238q-197 0 -281 37q-157 70 -157 250zM381 213q0 -68 61 -80q10 -2 115 -2h238q119 0 143 10q33 14 33 72v934q0 68 -60 82q-8 2 -116 2h-238 q-117 0 -141 -10q-35 -14 -35 -74v-934zM395 1762h242l135 -281h-146z" />
<glyph unicode="&#xf3;" d="M119 287v747q0 217 145 287q84 41 293 41h238q209 0 292 -41q145 -70 146 -287v-706q0 -217 -146 -287q-84 -41 -292 -41h-238q-197 0 -281 37q-157 70 -157 250zM381 213q0 -68 61 -80q10 -2 115 -2h238q119 0 143 10q33 14 33 72v934q0 68 -60 82q-8 2 -116 2h-238 q-117 0 -141 -10q-35 -14 -35 -74v-934zM641 1481h145l232 281h-242z" />
<glyph unicode="&#xf4;" d="M119 287v747q0 217 145 287q84 41 293 41h238q209 0 292 -41q145 -70 146 -287v-706q0 -217 -146 -287q-84 -41 -292 -41h-238q-197 0 -281 37q-157 70 -157 250zM381 213q0 -68 61 -80q10 -2 115 -2h238q119 0 143 10q33 14 33 72v934q0 68 -60 82q-8 2 -116 2h-238 q-117 0 -141 -10q-35 -14 -35 -74v-934zM449 1479l201 248h71l203 -248h-119l-121 148l-116 -148h-119z" />
<glyph unicode="&#xf5;" d="M119 287v747q0 217 145 287q84 41 293 41h238q209 0 292 -41q145 -70 146 -287v-706q0 -217 -146 -287q-84 -41 -292 -41h-238q-197 0 -281 37q-157 70 -157 250zM321 1479v205q76 121 195 121q78 0 221 -88q78 -47 121 -47q92 0 180 137v-211q-84 -115 -195 -115 q-72 0 -200 82q-80 51 -137 51q-85 0 -185 -135zM381 213q0 -68 61 -80q10 -2 115 -2h238q119 0 143 10q33 14 33 72v934q0 68 -60 82q-8 2 -116 2h-238q-117 0 -141 -10q-35 -14 -35 -74v-934z" />
<glyph unicode="&#xf6;" d="M119 287v747q0 217 145 287q84 41 293 41h238q209 0 292 -41q145 -70 146 -287v-706q0 -217 -146 -287q-84 -41 -292 -41h-238q-197 0 -281 37q-157 70 -157 250zM344 1607q0 -55 39 -94t94 -39t95.5 39t40.5 94t-40 95.5t-96 40.5q-55 0 -94 -40.5t-39 -95.5zM381 213 q0 -68 61 -80q10 -2 115 -2h238q119 0 143 10q33 14 33 72v934q0 68 -60 82q-8 2 -116 2h-238q-117 0 -141 -10q-35 -14 -35 -74v-934zM754 1607q0 -55 39 -94t94 -39t95 39t40 94t-40 95.5t-95 40.5t-94 -40.5t-39 -95.5z" />
<glyph unicode="&#xf8;" horiz-adv-x="1355" d="M113 0h139l24 35q84 -35 281 -35h238q209 0 292 41q145 70 146 287v706q0 152 -70 230l72 98h-139l-25 -35q-84 35 -276 35h-238q-209 0 -293 -41q-145 -70 -145 -287v-747q0 -111 65 -187zM381 371v776q0 68 59 82q8 2 117 2h238q137 0 157 -21q10 -10 15 -28zM383 182 l588 813v-782q0 -66 -62 -80q-8 -2 -114 -2h-238q-143 0 -160 23q-10 10 -14 28z" />
<glyph unicode="&#xf9;" horiz-adv-x="1357" d="M123 287v1075h262v-1149q0 -68 61 -80q10 -2 115 -2h238q119 0 143 10q33 14 33 72v1149h262v-1034q0 -217 -145 -287q-84 -41 -293 -41h-238q-197 0 -280 37q-158 70 -158 250zM395 1762h242l135 -281h-146z" />
<glyph unicode="&#xfa;" horiz-adv-x="1357" d="M123 287v1075h262v-1149q0 -68 61 -80q10 -2 115 -2h238q119 0 143 10q33 14 33 72v1149h262v-1034q0 -217 -145 -287q-84 -41 -293 -41h-238q-197 0 -280 37q-158 70 -158 250zM641 1481h145l232 281h-242z" />
<glyph unicode="&#xfb;" horiz-adv-x="1357" d="M123 287v1075h262v-1149q0 -68 61 -80q10 -2 115 -2h238q119 0 143 10q33 14 33 72v1149h262v-1034q0 -217 -145 -287q-84 -41 -293 -41h-238q-197 0 -280 37q-158 70 -158 250zM449 1479l201 248h71l203 -248h-119l-121 148l-116 -148h-119z" />
<glyph unicode="&#xfc;" horiz-adv-x="1357" d="M123 287v1075h262v-1149q0 -68 61 -80q10 -2 115 -2h238q119 0 143 10q33 14 33 72v1149h262v-1034q0 -217 -145 -287q-84 -41 -293 -41h-238q-197 0 -280 37q-158 70 -158 250zM344 1607q0 -55 39 -94t94 -39t95.5 39t40.5 94t-40 95.5t-96 40.5q-55 0 -94 -40.5 t-39 -95.5zM754 1607q0 -55 39 -94t94 -39t95 39t40 94t-40 95.5t-95 40.5t-94 -40.5t-39 -95.5z" />
<glyph unicode="&#xfd;" horiz-adv-x="1486" d="M49 1362l545 -1362h2l-256 -633h283l798 1995h-278l-408 -1012l-407 1012h-279zM641 1481h145l232 281h-242z" />
<glyph unicode="&#x2000;" horiz-adv-x="1214" />
<glyph unicode="&#x2001;" horiz-adv-x="2429" />
<glyph unicode="&#x2002;" horiz-adv-x="1214" />
<glyph unicode="&#x2003;" horiz-adv-x="2429" />
<glyph unicode="&#x2004;" horiz-adv-x="809" />
<glyph unicode="&#x2005;" horiz-adv-x="607" />
<glyph unicode="&#x2006;" horiz-adv-x="404" />
<glyph unicode="&#x2007;" horiz-adv-x="404" />
<glyph unicode="&#x2008;" horiz-adv-x="303" />
<glyph unicode="&#x2009;" horiz-adv-x="485" />
<glyph unicode="&#x200a;" horiz-adv-x="134" />
<glyph unicode="&#x2010;" horiz-adv-x="1126" d="M113 831h893v134h-893v-134z" />
<glyph unicode="&#x2011;" horiz-adv-x="1126" d="M113 831h893v134h-893v-134z" />
<glyph unicode="&#x2012;" horiz-adv-x="1126" d="M113 831h893v134h-893v-134z" />
<glyph unicode="&#x2013;" horiz-adv-x="1257" d="M113 831h1024v134h-1024v-134z" />
<glyph unicode="&#x2014;" horiz-adv-x="2281" d="M113 831h2048v134h-2048v-134z" />
<glyph unicode="&#x2018;" horiz-adv-x="434" d="M129 1393h113l71 200v226h-184v-426z" />
<glyph unicode="&#x2019;" horiz-adv-x="434" d="M129 1393h113l71 200v226h-184v-426z" />
<glyph unicode="&#x201c;" horiz-adv-x="929" d="M129 1393h113l71 200v226h-184v-426zM625 1393h112l72 200v226h-184v-426z" />
<glyph unicode="&#x201d;" horiz-adv-x="929" d="M129 1393h113l71 200v226h-184v-426zM625 1393h112l72 200v226h-184v-426z" />
<glyph unicode="&#x2022;" horiz-adv-x="811" d="M119 889q0 -123 84 -207t207 -84q121 0 206.5 85t85.5 206q0 119 -87 206t-205 87q-121 0 -206 -86t-85 -207z" />
<glyph unicode="&#x202f;" horiz-adv-x="485" />
<glyph unicode="&#x205f;" horiz-adv-x="607" />
<glyph unicode="&#x25fc;" horiz-adv-x="1361" d="M0 0v1362h1362v-1362h-1362z" />
</font>
</defs>
</svg>
