<?xml version="1.0" encoding="utf-8"?>
<!-- Generator: Adobe Illustrator 27.5.0, SVG Export Plug-In . SVG Version: 6.00 Build 0)  -->
<svg version="1.1" id="Layer_1" xmlns="http://www.w3.org/2000/svg" xmlns:xlink="http://www.w3.org/1999/xlink" x="0px" y="0px"
	 width="30px" height="30px" viewBox="0 0 30 30" style="enable-background:new 0 0 30 30;" xml:space="preserve">
<style type="text/css">
	.st0{fill:#FFFFFF;}
	.st1{fill:#00703C;}
	.st2{fill:url(#SVGID_1_);}
	.st3{fill-rule:evenodd;clip-rule:evenodd;fill:#FFFFFF;}
</style>
<circle class="st0" cx="15" cy="15" r="15"/>
<g>
	<g>
		<path class="st1" d="M13.9,18.4C13.9,18.4,13.9,18.4,13.9,18.4c0.5,0,0.8-0.4,0.7-0.8l-0.3-3.3c0-0.4-0.4-0.7-0.8-0.7
			c-0.4,0-0.7,0.4-0.7,0.8l0.3,3.3C13.2,18.1,13.5,18.4,13.9,18.4z M17.7,18.4C17.7,18.4,17.8,18.4,17.7,18.4c0.4,0,0.8-0.3,0.8-0.7
			l0.3-3.3c0-0.4-0.3-0.8-0.7-0.8c-0.4,0-0.8,0.3-0.8,0.7l-0.3,3.3C17,18,17.3,18.4,17.7,18.4z M12,21.6c-1.2,0-2.3,1-2.3,2.3
			c0,1.3,1,2.3,2.3,2.3c1.2,0,2.3-1,2.3-2.3C14.3,22.6,13.3,21.6,12,21.6z M12,24.7c-0.4,0-0.8-0.4-0.8-0.8c0-0.4,0.4-0.8,0.8-0.8
			c0.4,0,0.8,0.4,0.8,0.8C12.9,24.3,12.5,24.7,12,24.7z M19.6,21.6c-1.2,0-2.3,1-2.3,2.3c0,1.3,1,2.3,2.3,2.3c1.2,0,2.3-1,2.3-2.3
			C21.9,22.6,20.9,21.6,19.6,21.6z M19.6,24.7c-0.4,0-0.8-0.4-0.8-0.8c0-0.4,0.4-0.8,0.8-0.8c0.4,0,0.8,0.4,0.8,0.8
			C20.4,24.3,20.1,24.7,19.6,24.7z M24,11.2c-0.1-0.2-0.4-0.3-0.6-0.3H8.8L8.2,8.6C8.1,8.3,7.8,8,7.5,8h-3C4.1,8,3.8,8.4,3.8,8.8
			c0,0.4,0.3,0.7,0.7,0.7h2.4l0.6,2.3c0,0,0,0,0,0l2.3,8.7c0.1,0.3,0.4,0.5,0.7,0.5h10.6c0.3,0,0.6-0.2,0.7-0.5l2.3-8.7
			C24.2,11.7,24.1,11.4,24,11.2z M20.6,19.7h-9.5l-1.9-7.3h13.3L20.6,19.7z"/>
	</g>
</g>
</svg>
