<?xml version="1.0" encoding="utf-8"?>
<!-- Generator: Adobe Illustrator 25.2.3, SVG Export Plug-In . SVG Version: 6.00 Build 0)  -->
<svg version="1.1" id="Layer_1" xmlns="http://www.w3.org/2000/svg" xmlns:xlink="http://www.w3.org/1999/xlink" x="0px" y="0px"
	 width="25px" height="26px" viewBox="0 0 25 26" enable-background="new 0 0 25 26" xml:space="preserve">
<g>
	<g>
		<path fill="#00703C" d="M13.611,16.136c0,1.797,1.462,3.259,3.26,3.259c1.797,0,3.259-1.462,3.259-3.259
			c0-1.797-1.462-3.26-3.259-3.26C15.073,12.876,13.611,14.339,13.611,16.136z M21,0H4C1.791,0,0,1.791,0,4v18c0,2.209,1.791,4,4,4
			h17c1.027,0,1.953-0.398,2.661-1.034l-3.791-3.791c-0.879,0.525-1.905,0.827-3,0.827c-3.235,0-5.867-2.632-5.867-5.867
			c0-3.235,2.632-5.867,5.867-5.867c3.235,0,5.867,2.632,5.867,5.867c0,1.197-0.361,2.311-0.979,3.24l3.185,3.185
			C24.97,22.376,25,22.192,25,22V4C25,1.791,23.209,0,21,0z M5.464,10.043h4.287v1.695H5.464V10.043z M5.464,15.043h3.287v1.695
			H5.464V15.043z M10.751,21.738H5.464v-1.695h5.287V21.738z M17.751,6.738H5.464V5.043h12.287V6.738z"/>
	</g>
</g>
</svg>
